<?xml version="1.0" encoding="utf-8"?>
<!-- Generator: Adobe Illustrator 21.1.0, SVG Export Plug-In . SVG Version: 6.00 Build 0)  -->
<svg version="1.1" id="Calque_1" xmlns="http://www.w3.org/2000/svg" xmlns:xlink="http://www.w3.org/1999/xlink" x="0px" y="0px"
	 viewBox="0 0 24 24" style="enable-background:new 0 0 24 24;" xml:space="preserve">
<style type="text/css">
	.st0{fill:none;}
	.st1{fill:#FFFFFF;}
</style>
<g>
	<path class="st0" d="M16.8,5.1c-3.2,0-4.5,3.3-4.5,3.3S11,5.1,7.8,5.1c-2,0-3.5,1.5-3.5,3.5c0,2.8,3.2,5.8,8,10.1
		c4.8-4.3,8-7.3,8-10.1C20.3,6.6,18.8,5.1,16.8,5.1z"/>
	<path class="st1" d="M16.8,3.1c-1.7,0-3.4,0.8-4.5,2.1c-1.1-1.3-2.8-2.1-4.5-2.1c-3.1,0-5.5,2.4-5.5,5.5c0,3.8,3.4,6.9,8.6,11.5
		l1.4,1.3l1.4-1.3c5.2-4.6,8.6-7.7,8.6-11.5C22.3,5.5,19.9,3.1,16.8,3.1z M12.3,18.7c-4.8-4.3-8-7.3-8-10.1c0-2,1.5-3.5,3.5-3.5
		c3.2,0,4.5,3.3,4.5,3.3s1.3-3.3,4.5-3.3c2,0,3.5,1.5,3.5,3.5C20.3,11.4,17.1,14.4,12.3,18.7z"/>
</g>
</svg>
