<?xml version="1.0" encoding="utf-8"?>
<!-- Generator: Adobe Illustrator 21.1.0, SVG Export Plug-In . SVG Version: 6.00 Build 0)  -->
<svg version="1.1" id="Layer_1" xmlns="http://www.w3.org/2000/svg" xmlns:xlink="http://www.w3.org/1999/xlink" x="0px" y="0px"
	 viewBox="0 0 512 512" style="enable-background:new 0 0 512 512;" xml:space="preserve">
<style type="text/css">
	.st0{fill:#44546A;}
</style>
<g>
	<g>
		<path class="st0" d="M432.4,289.6c-14.3-20.5-36.5-34.2-66.5-41c23.9-9.6,41.6-23.9,53.1-42.9s17.2-40.7,17.2-65.1
			c0-46.7-17.8-81.8-53.4-105.3C347.1,11.8,297.5,0,234,0H58.2v512h201.1c62.6,0,110.7-12.8,144.2-38.3s50.3-63.3,50.3-113.2
			C453.8,333.7,446.6,310.1,432.4,289.6z M177.4,91.4H234c28.1,0,49,5,62.6,14.9c13.6,10,20.4,25.8,20.4,47.6
			c0,19.2-6.7,33.8-20,43.8c-13.4,10-33.5,15.2-60.5,15.7h-59.1V91.4z M316.3,405.6c-12.7,10-31.6,15-57,15h-81.9V292.2H266
			c24.4,0,42,5.7,52.9,17.1s16.4,28.2,16.4,50.5C335.3,380.4,329,395.7,316.3,405.6z"/>
	</g>
</g>
</svg>
