<?xml version="1.0" encoding="utf-8"?>
<!-- Generator: Adobe Illustrator 21.1.0, SVG Export Plug-In . SVG Version: 6.00 Build 0)  -->
<svg version="1.1" id="Calque_1" xmlns="http://www.w3.org/2000/svg" xmlns:xlink="http://www.w3.org/1999/xlink" x="0px" y="0px"
	 viewBox="0 0 512 512" style="enable-background:new 0 0 512 512;" xml:space="preserve">
<style type="text/css">
	.st0{fill:#5B9BD5;}
</style>
<path class="st0" d="M252,150c-75,0-136,61-136,136s61,136,136,136s136-61,136-136S327,150,252,150z M347.9,301H237V190.1h30V271
	h80.9V301L347.9,301z"/>
<path class="st0" d="M486.1,115.6l-63.7-63.7l-45.6,45.6c-24.2-16.1-51.2-27.3-79.8-33V30h30V0H176.9v30h30v34.5
	c-43.2,8.7-82.9,29.9-114.8,61.7C49.5,168.9,26,225.7,26,286s23.5,117.1,66.2,159.8S191.6,512,252,512s117.1-23.5,159.8-66.2
	S478,346.4,478,286c0-45.1-13.1-88.1-37.5-124.8L486.1,115.6z M252,452c-91.5,0-166-74.5-166-166s74.5-166,166-166s166,74.5,166,166
	S343.5,452,252,452z"/>
</svg>
