<?xml version="1.0" encoding="utf-8"?>
<!-- Generator: Adobe Illustrator 21.1.0, SVG Export Plug-In . SVG Version: 6.00 Build 0)  -->
<svg version="1.1" id="Layer_1" xmlns="http://www.w3.org/2000/svg" xmlns:xlink="http://www.w3.org/1999/xlink" x="0px" y="0px"
	 viewBox="0 0 512 512" style="enable-background:new 0 0 512 512;" xml:space="preserve">
<style type="text/css">
	.st0{fill:#5B9BD5;}
</style>
<g>
	<g>
		<g>
			<path class="st0" d="M309.4,377.1l-34.7,20.2c-5.4,3.1-7,9.7-3.6,14.8c2.1,3.2,5.8,4.9,9.5,5c2.2,0.1,4.4-0.5,6.4-1.6l34.7-20.2
				c5.4-3.1,7-9.7,3.6-14.8C321.9,375.5,314.8,374,309.4,377.1z"/>
			<path class="st0" d="M240,417.4l-34.7,20.2c-5.4,3.1-7,9.7-3.6,14.8c2.1,3.2,5.8,4.9,9.5,5c2.2,0.1,4.4-0.5,6.4-1.6l34.7-20.2
				c5.4-3.1,7-9.7,3.6-14.8C252.5,415.8,245.4,414.3,240,417.4z"/>
			<path class="st0" d="M171.7,458.1L137,478.3c-5.4,3.1-7,9.7-3.6,14.8c2.1,3.2,5.8,4.9,9.5,5c2.2,0.1,4.4-0.5,6.4-1.6l34.7-20.2
				c5.4-3.1,7-9.7,3.6-14.8C184.2,456.5,177,455,171.7,458.1z"/>
			<path class="st0" d="M380.9,336.5l-34.7,20.2c-5.4,3.1-7,9.7-3.6,14.8c2.1,3.2,5.8,4.9,9.5,5c2.2,0.1,4.4-0.5,6.4-1.6l34.7-20.2
				c5.4-3.1,7-9.7,3.6-14.8C393.5,334.9,386.3,333.4,380.9,336.5z"/>
		</g>
	</g>
</g>
<path class="st0" d="M106.2,224.3c-53.4,0-96.3,42.9-96.3,96.3c0,71.9,96.3,177.5,96.3,177.5s96.3-105.6,96.3-177.5
	C202.5,267.2,159.6,224.3,106.2,224.3z M106.2,354.2c-18.6,0-33.6-15.1-33.6-33.6S87.7,287,106.2,287s33.6,15.1,33.6,33.6
	C139.9,339.1,124.8,354.2,106.2,354.2z"/>
<path class="st0" d="M414.7,60.5c-53.4,0-96.3,42.9-96.3,96.3c0,71.9,96.3,177.5,96.3,177.5S511,228.7,511,156.7
	C511,103.4,468.1,60.5,414.7,60.5z M414.7,190.4c-18.6,0-33.6-15.1-33.6-33.6s15.1-33.6,33.6-33.6s33.6,15.1,33.6,33.6
	S433.3,190.4,414.7,190.4z"/>
</svg>
