<svg xmlns="http://www.w3.org/2000/svg" viewBox="0 0 283.53 286.97"><defs><style>.cls-1,.cls-4{fill:#44546a;}.cls-1,.cls-3{fill-rule:evenodd;}.cls-2{fill:#5b9bd5;}.cls-3{fill:#5b9ad4;}.cls-4{font-size:19.14px;font-family:MyriadPro-Semibold, Myriad Pro;font-weight:700;}.cls-5{letter-spacing:-0.03em;}.cls-6{letter-spacing:0em;}.cls-7{letter-spacing:0em;}.cls-8{letter-spacing:0.01em;}.cls-9{letter-spacing:-0.02em;}.cls-10{letter-spacing:-0.02em;}.cls-11{letter-spacing:-0.01em;}</style></defs><title>Fichier 1</title><g id="Calque_2" data-name="Calque 2"><g id="Calque_1-2" data-name="Calque 1"><path class="cls-1" d="M19.44,202.89c3.94,4.85,3.4,11.42-1,15a10.49,10.49,0,0,1-14.59-1.49,10.32,10.32,0,0,1,1.39-14.82l6.58,7.35Z"/><path class="cls-1" d="M48.86,184.74h2.61v59.78H48.86Z"/><path class="cls-1" d="M10.7,221.33h1.59v23.2H10.7Z"/><path class="cls-1" d="M51.46,160.94c2,4,3.52,8.08,2,12.63-.71,2.11-1.4,4.23-2.25,6.28-.56,1.35-1.68,1.29-2.27.14-2.16-4.23-4.32-8.51-2.38-13.48.71-1.83,1.31-3.7,2.13-5.47S50.46,159.37,51.46,160.94Z"/><path class="cls-1" d="M45.65,203.39c0,1.67-.67,2.1-2.15,1.36-6.45-3.23-10.11-8.37-10.59-15.63-.08-1.18.08-2.31,1.8-1.68C40.21,189.44,45.73,197.47,45.65,203.39Z"/><path class="cls-1" d="M45.65,231.14c0,1.62-.71,2-2.21,1.27-6.29-3.12-10-8-10.54-15.17-.13-1.76.66-2.4,2.14-1.56,5.79,3.31,10,7.79,10.58,14.85C45.63,230.74,45.64,230.94,45.65,231.14Z"/><path class="cls-1" d="M9.72,238.89c0,1-.54,1.3-1.68.82-4.79-2-7.64-5.15-8-9.73-.1-1.13.51-1.54,1.62-1,4.41,2.13,7.62,5,8.05,9.52C9.7,238.63,9.71,238.76,9.72,238.89Z"/><path class="cls-1" d="M14.88,230.79c-1,.11-1.35-.37-1-1.57,1.38-5,4.15-8.22,8.64-9.18,1.11-.24,1.59.31,1.2,1.49-1.55,4.64-4,8.18-8.43,9.19Z"/><path class="cls-1" d="M45.24,217.15c0,1.73-.68,2.18-2.26,1.4-6.22-3.09-9.92-7.94-10.49-15-.14-1.7.46-2.35,1.81-1.86C39.87,203.7,45.11,211.11,45.24,217.15Z"/><path class="cls-1" d="M45.64,189.67c-.06.91-.55,1.61-2,.88-6.39-3.11-10.22-8-10.7-15.27-.07-1.11,0-2.35,1.76-1.71C40.24,175.57,45.76,183.43,45.64,189.67Z"/><path class="cls-1" d="M54.08,203.39c0,1.67.64,2.1,2.07,1.36a17.86,17.86,0,0,0,10.16-15.63c.08-1.18-.08-2.31-1.73-1.68C59.3,189.44,54,197.47,54.08,203.39Z"/><path class="cls-1" d="M54.08,231.14c0,1.62.68,2,2.12,1.27,6-3.12,9.62-8,10.11-15.17.12-1.76-.64-2.4-2-1.56-5.56,3.31-9.6,7.79-10.15,14.85C54.1,230.74,54.09,230.94,54.08,231.14Z"/><path class="cls-1" d="M54.48,217.15c0,1.73.65,2.18,2.16,1.4,6-3.09,9.51-7.94,10.06-15,.13-1.7-.44-2.35-1.74-1.86C59.63,203.7,54.6,211.11,54.48,217.15Z"/><path class="cls-1" d="M54.09,189.67c.06.91.53,1.61,2,.88,6.12-3.11,9.8-8,10.25-15.27.07-1.11,0-2.35-1.69-1.71C59.27,175.57,54,183.43,54.09,189.67Z"/><polygon class="cls-2" points="189.49 66.05 189.49 84.78 177.28 84.78 177.28 66.05 144.5 66.05 144.5 84.78 132.29 84.78 132.29 66.05 99.1 66.05 99.1 84.78 86.89 84.78 86.89 66.05 62.46 66.05 62.46 115.32 213.52 115.32 213.52 66.05 189.49 66.05"/><path class="cls-3" d="M11.82,208.91l5.47-4.3c-3-2.8-6.23-3.12-10.23-1Z"/><text class="cls-4" transform="translate(9.72 277.93)"><tspan class="cls-5">P</tspan><tspan x="10.22" y="0">o</tspan><tspan class="cls-6" x="21.01" y="0">n</tspan><tspan x="31.86" y="0">taul</tspan><tspan class="cls-7" x="64.11" y="0">t</tspan><tspan class="cls-8" x="70.77" y="0">-</tspan><tspan class="cls-9" x="77.04" y="0">C</tspan><tspan x="87.99" y="0">ombault </tspan><tspan class="cls-10" x="162.41" y="0">P</tspan><tspan class="cls-11" x="172.7" y="0">a</tspan><tspan x="182.31" y="0">trimoine</tspan></text><path class="cls-2" d="M138.19,195.53,79.56,244.8l115.56-.05Zm4.91,29.89a6,6,0,0,1-2.89-.73c-.77,3.57.78,7.48,1.13,9.56.4,2.42-4.5,7.54-4.5,7.54l1.31-3.81c1.31-3.81-.75-8-1.91-9.54a8.14,8.14,0,0,1-1-3.53,5.32,5.32,0,1,1-3-10.08,6.08,6.08,0,1,1,11.55-1.5,6.07,6.07,0,0,1-.67,12.1Z"/><path class="cls-2" d="M213.52,118.58H62.46l17.1,18.32-.14,79.7L138,167.44l57,49.12-.2-79.65Zm-105.1,46.31a6,6,0,0,1-2.89-.73c-.77,3.57.78,7.48,1.13,9.56.4,2.43-4.5,7.54-4.5,7.54l1.31-3.81c1.31-3.81-.75-8-1.91-9.55a8.14,8.14,0,0,1-1-3.53,5.32,5.32,0,1,1-3-10.08,6.07,6.07,0,1,1,11.63-2.44,6.11,6.11,0,0,1-.08.94,6.07,6.07,0,0,1-.68,12.1Zm67.56,0a6,6,0,0,1-2.89-.73c-.77,3.57.78,7.48,1.13,9.56.4,2.43-4.5,7.54-4.5,7.54l1.31-3.81c1.31-3.81-.75-8-1.91-9.55a8.14,8.14,0,0,1-1-3.53,5.32,5.32,0,1,1-3-10.08,6.08,6.08,0,1,1,11.55-1.5,6.07,6.07,0,0,1-.67,12.1Z"/><path class="cls-1" d="M278.84,180.44c-.41-.51-.77-1.06-1.12-1.54,6.42-8,2.39-16.95-5.54-19.91a49.12,49.12,0,0,0-6.89-1.54c-2.34-9.5-8.11-15.45-17.66-16.11-12.3-.85-19,6.21-21.56,17.77-10.9-4-19,2.32-21.89,9.11a17.46,17.46,0,0,0-.89,11.71c1.65,6.11,5.63,10.14,11.44,12.45-5.13,7.64-4.13,14.68-.32,19.88,4.56,6.23,9.39,8.68,19.34,8.71l3.72,0-.07,23.18h7.53l.07-23.35,4.36-.36a19.13,19.13,0,0,0,12.46-6.95,3.48,3.48,0,0,1,2.26-.91c8.2-.46,14.28-4.35,17.6-11.76C284.9,193.61,283.9,186.65,278.84,180.44Z"/><path class="cls-1" d="M261.25,19a6.31,6.31,0,0,1-3.9-1.64,2.87,2.87,0,0,0-3.17-.27,29.79,29.79,0,0,0-3.2,1.81,33.84,33.84,0,0,1-3.13,1.77,2.25,2.25,0,0,1-2.9-.47c-.44-.46-.92-.9-1.33-1.39-1.19-1.43-2.36-2.89-3.54-4.34-1.41-.83-3-1.36-4.21-2.52a52.75,52.75,0,0,1-4.14-4.35,39.7,39.7,0,0,1-4.65-6.29L226.21,0a5.12,5.12,0,0,0-1.57,2,16.43,16.43,0,0,0-1.09,4.8,20.57,20.57,0,0,0,1.46,9.3,5.28,5.28,0,0,0,.39,1.12,12.62,12.62,0,0,0,3.31,3.84,2.56,2.56,0,0,1,.9,1.35,46.91,46.91,0,0,0,1.62,5.35,9.85,9.85,0,0,0,1.24,2.13c.39.46.24.76-.24,1a5.39,5.39,0,0,1-.51.22c-3,1.07-6,2.34-9,3.6-.27.12-.87.45-.87.45a6.75,6.75,0,0,0-.71.51A7.68,7.68,0,0,1,228,40.72l.21-.24c1.17-1.17,2.33-2.35,3.51-3.52a3.4,3.4,0,0,1,2.09-1.05c1.53-.17,3.05-.48,4.58-.7a17.62,17.62,0,0,0,9-3.88c.78-.65,1.57-1.28,2.36-1.92A35.57,35.57,0,0,0,255,23a6,6,0,0,1,4.12-2.75c.7-.15,1.4-.32,2.1-.5.21-.05.41-.17.39-.43A.35.35,0,0,0,261.25,19Z"/><path class="cls-1" d="M279.11,49.95a4.59,4.59,0,0,1-2.83-1.19,2.09,2.09,0,0,0-2.3-.2,21.68,21.68,0,0,0-2.33,1.32,24.75,24.75,0,0,1-2.28,1.29,1.64,1.64,0,0,1-2.11-.35c-.32-.34-.67-.65-1-1-.87-1-1.72-2.1-2.57-3.15a15,15,0,0,1-3.06-1.83,38.41,38.41,0,0,1-3-3.16,28.84,28.84,0,0,1-3.38-4.57l-.62-1a3.72,3.72,0,0,0-1.14,1.45,11.93,11.93,0,0,0-.8,3.49,15,15,0,0,0,1.06,6.76,3.86,3.86,0,0,0,.28.81,9.17,9.17,0,0,0,2.41,2.79,1.86,1.86,0,0,1,.66,1,34.08,34.08,0,0,0,1.17,3.89,7.17,7.17,0,0,0,.9,1.55c.28.33.18.55-.18.72l-.37.16c-2.21.78-4.36,1.7-6.51,2.62-.2.08-.63.33-.63.33A5,5,0,0,0,250,62a5.58,5.58,0,0,1,4.93,3.68l.15-.17L257.62,63a2.47,2.47,0,0,1,1.52-.77c1.11-.13,2.22-.35,3.33-.51A12.8,12.8,0,0,0,269,58.89c.57-.47,1.14-.93,1.71-1.4a25.86,25.86,0,0,0,3.87-4.63,4.35,4.35,0,0,1,3-2c.51-.11,1-.24,1.53-.37.15,0,.3-.13.29-.31A.25.25,0,0,0,279.11,49.95Z"/><path class="cls-1" d="M245.75,58.77a3.52,3.52,0,0,1-2.18-.92,1.61,1.61,0,0,0-1.77-.15,16.69,16.69,0,0,0-1.79,1,19.06,19.06,0,0,1-1.75,1,1.26,1.26,0,0,1-1.62-.27c-.25-.26-.52-.5-.74-.77-.67-.8-1.32-1.61-2-2.42a11.61,11.61,0,0,1-2.35-1.41,29.58,29.58,0,0,1-2.31-2.43,22.15,22.15,0,0,1-2.6-3.51l-.48-.76a2.87,2.87,0,0,0-.88,1.11,9.17,9.17,0,0,0-.61,2.68,11.5,11.5,0,0,0,.82,5.2,3,3,0,0,0,.22.63,7.06,7.06,0,0,0,1.85,2.15,1.43,1.43,0,0,1,.51.76,26.23,26.23,0,0,0,.9,3,5.5,5.5,0,0,0,.69,1.19c.22.26.14.42-.14.56l-.29.12c-1.7.6-3.35,1.31-5,2-.15.06-.49.25-.49.25a3.81,3.81,0,0,0-.4.28,4.29,4.29,0,0,1,3.79,2.83l.11-.13,2-2a1.9,1.9,0,0,1,1.17-.59c.86-.1,1.71-.27,2.56-.39a9.84,9.84,0,0,0,5-2.17l1.32-1.07a19.86,19.86,0,0,0,3-3.56,3.35,3.35,0,0,1,2.3-1.54c.39-.08.78-.18,1.17-.28.12,0,.23-.1.22-.24A.2.2,0,0,0,245.75,58.77Z"/></g></g></svg>